<?xml version="1.0" standalone="no"?><!DOCTYPE svg PUBLIC "-//W3C//DTD SVG 1.1//EN" "http://www.w3.org/Graphics/SVG/1.1/DTD/svg11.dtd"><svg t="1682691073010" class="icon" viewBox="0 0 1024 1024" version="1.1" xmlns="http://www.w3.org/2000/svg" p-id="4059" xmlns:xlink="http://www.w3.org/1999/xlink" width="200" height="200"><path d="M828.4 805.4L671.5 648.5c-46.8 48.5-112.3 78.3-184.9 79.3-146.8 2-268.5-118.2-268.2-265 0.3-146 118.3-263.8 264.4-263.8 146.3 0 264.4 118.1 264.4 264.4 0 48.3-13.2 93.7-35.7 133.4-3.8 6.8-2.6 15.2 2.9 20.7 8 8 21.4 6.3 27.2-3.5 26-43.8 40.8-95.2 40.8-150.6 0-165.7-134-299.7-299.7-299.7-165.8 0-299.7 133.9-299.7 299.7 0 165.7 134 299.7 299.7 299.7 70.5 0 135.7-24.7 186.9-65.2L802.9 831c7.2 7.2 19 7 26-0.4 6.6-7.2 6.4-18.3-0.5-25.2z m12.4 12.4" fill="#ffffff" p-id="4060"></path><path d="M313.1 441c10.2-82.6 76.4-147.4 159-154.9 9.1-0.8 16-8.4 16-17.6 0-10.4-8.9-18.5-19.2-17.6-99.1 9-178.6 86.8-190.8 185.6-1.3 10.5 6.9 19.8 17.5 19.8 8.9 0.1 16.5-6.5 17.5-15.3z m-1.2 15.4" fill="#ffffff" p-id="4061"></path></svg>